# xmcd
#
# Track frame offsets: 
#        150
#        17855
#        35784
#        55101
#        70669
#        83949
#        97904
#        115085
#        128816
#        168157
#        185150
#        197831
#        233161
#        253565
#        278020
#
# Disc length: 3925 seconds
#
# Revision: 0
# Processed by: cddbd v1.5.2PL0 Copyright (c) Steve Scherf et al.
# Submitted via: ExactAudioCopy v0.95a5
#
DISCID=ca0f530f
DTITLE=Rod Piazza - 1968-2003 Disk 1
DYEAR=1900
DGENRE=Blues
TTITLE0=Spoonful
TTITLE1=Juicy Harmonica
TTITLE2=Up The Line
TTITLE3=Help Me
TTITLE4=I Got To Go
TTITLE5=The Bounce
TTITLE6=Talk To Your Daughter
TTITLE7=Shot From The Saddle
TTITLE8=Blues For Honey
TTITLE9=Do The Boogie With You
TTITLE10=You Don't Know
TTITLE11=When I'm Wrong, I'm Wrong
TTITLE12=P.S. I Love You
TTITLE13=Texas Twister
TTITLE14=Harpburn
EXTD=
EXTT0=
EXTT1=
EXTT2=
EXTT3=
EXTT4=
EXTT5=
EXTT6=
EXTT7=
EXTT8=
EXTT9=
EXTT10=
EXTT11=
EXTT12=
EXTT13=
EXTT14=
PLAYORDER=
